<svg width="100" height="100" fill="none" xmlns="http://www.w3.org/2000/svg"><path fill-rule="evenodd" clip-rule="evenodd" d="M10 0A10 10 0 000 10v80a10 10 0 0010 10h80a10 10 0 0010-10V10A10 10 0 0090 0H10zm43.9 27c2.6-5.4 7.7-8.8 14.1-9.7 1.9-.3 14.3-.4 15-.2l.7.6c.3.3.3.4.3 7.3v7l-.4.4c-.2.3-.6.5-.8.6l-5 .1-5.4.2a4 4 0 00-2.7 2l-.5 1v10.5h6.6l6.8.1.4.5.5.6v7.3c0 7.9 0 8-.9 8.4-.3.1-2.2.2-7 .2h-6.4V81c0 16.6 0 18-.7 18.5l-.3.2c-.4.2-1.4.2-8.1.2h-7.6l-.5-.6-.4-.5v-35h-5.7c-5.8 0-6 0-6.6-.8-.3-.3-.3-1-.3-7.8 0-7.3 0-7.4.3-7.8l.8-.5c.2-.1 2.9-.2 6-.2h5.5v-5.6c0-8 .3-10.4 2.3-14.2z" fill="url(#paint0_linear)"/><defs><linearGradient id="paint0_linear" x1="50" y1="0" x2="50" y2="100" gradientUnits="userSpaceOnUse"><stop stop-color="#5F93FF"/><stop offset="1" stop-color="#3B5998"/></linearGradient></defs></svg>