<svg xmlns="http://www.w3.org/2000/svg" fill="none" viewBox="0 0 100 100"><defs/><path fill="url(#paint0_linear)" fill-rule="evenodd" d="M10 0A10 10 0 000 10v80a10 10 0 0010 10h80a10 10 0 0010-10V10A10 10 0 0090 0H10zM7.2 24.1c.3-1.6 2-3.8 3.7-4.5.7-.3 1.7-.6 2.2-.6.9 0 4.1 2.3 28.6 20.4l8 6 13-9.5 18-13.2c3-2.3 5.4-3.7 6-3.7 1.6 0 4.1 1.7 5.2 3.5l1 1.7V49c.2 16.5 0 25.3-.3 26.8-.7 3.3-2.3 4.5-7 5L83 81V58.2c0-12.6-.1-22.9-.3-22.9-.2 0-14.6 9.8-27 18.5-3 2-5.6 3.7-5.9 3.7-.3 0-7.8-5.1-16.8-11.3-9-6.2-16.4-11.3-16.6-11.3-.1 0-.2 10.3-.2 23v23h-1.8c-2.4 0-5-1.3-6.2-3l-1-1.4L7 51c0-14 0-26.1.2-26.9z" clip-rule="evenodd"/><defs><linearGradient id="paint0_linear" x1="50" x2="50" y1="0" y2="100" gradientUnits="userSpaceOnUse"><stop stop-color="#ED4335"/><stop offset="1" stop-color="#A6332A"/></linearGradient></defs></svg>