<svg width="100" height="100" fill="none" xmlns="http://www.w3.org/2000/svg"><path fill-rule="evenodd" clip-rule="evenodd" d="M10 0A10 10 0 000 10v80a10 10 0 0010 10h80a10 10 0 0010-10V10A10 10 0 0090 0H10zm2.2 30.3a21 21 0 0118-18 885 885 0 0139.5 0 21 21 0 0118 18c.4 2.3.4 37.1 0 39.4a21 21 0 01-18 18c-2.3.4-37.1.4-39.4 0a20.8 20.8 0 01-18-18c-.4-2.3-.4-37.1 0-39.4zm65-7.2a14 14 0 00-9-4.3c-2-.2-34.7-.1-36.6 0a14 14 0 00-8.5 4 14 14 0 00-4.3 9c-.2 2.2-.2 34.2 0 36.3.4 3.5 1.7 6.4 4 8.8a14 14 0 009 4.3c2.2.2 34.2.2 36.3 0a14 14 0 009-4.3c2.4-2.4 3.7-5.3 4-8.8.3-2.1.3-34.1 0-36.2-.3-3.6-1.6-6.4-4-8.8zm-11.3 4.5a5 5 0 012.7-2.5c3.1-1.2 6.6 1 6.7 4.4 0 1.2-.2 2-.8 2.9a4.9 4.9 0 01-8.5-4.8zm-29.7 8.6a19.6 19.6 0 1127.6 27.7 19.6 19.6 0 01-27.6-27.7zM62.5 47a13 13 0 00-9.5-9.5 15 15 0 00-6 0 13 13 0 00-9.5 9.5c-.4 1.7-.4 4.2 0 6A13 13 0 0050 62.8 13 13 0 0062.5 47z" fill="url(#paint0_linear)"/><defs><linearGradient id="paint0_linear" x1="50" y1="0" x2="50" y2="100" gradientUnits="userSpaceOnUse"><stop stop-color="#E1003A"/><stop offset="1" stop-color="#C7008C"/></linearGradient></defs></svg>