<svg width="100" height="100" fill="none" xmlns="http://www.w3.org/2000/svg"><path fill-rule="evenodd" clip-rule="evenodd" d="M7.6.3l-2.1.8C4 1.8 1.8 4.1 1 5.5 0 7.9 0 4.9 0 50c0 45 0 42 1.1 44.5.7 1.4 3 3.7 4.4 4.4 2.4 1.2-.6 1 44.5 1 45 0 42 .2 44.5-1 1.4-.7 3.7-3 4.4-4.4 1.2-2.4 1.1.6 1.1-44.5 0-45 0-42-1.1-44.5-.7-1.4-3-3.7-4.4-4.4C92.1 0 95.1 0 50 .1 14.3 0 8.5 0 7.6.2zM25.3 14a9 9 0 11-5.5 17 9 9 0 015.5-17zM72 39.6c4.8 1.4 8.9 4.9 11.1 9.5 1.8 3.6 1.6 2.3 1.7 20V85H70V71c0-15 0-14.7-1-16.5a7.6 7.6 0 00-7.5-3.4c-2.9.5-5 2.4-6 5.1-.3.9-.3 2.4-.3 14.8V85H40V40h15.1V45.7l1.8-1.8c2.3-2.3 4.8-3.8 7.8-4.6a20 20 0 017.4.3zM30 62.5V85H15V40h15.1v22.5z" fill="url(#paint0_linear)"/><defs><linearGradient id="paint0_linear" x1="50" y1="100" x2="50" y2="0" gradientUnits="userSpaceOnUse"><stop stop-color="#0077B7"/><stop offset="1" stop-color="#00A5FD"/></linearGradient></defs></svg>