<svg xmlns="http://www.w3.org/2000/svg" fill="none" viewBox="0 0 100 100"><defs/><path fill="url(#paint0_linear)" fill-rule="evenodd" d="M10 0A10 10 0 000 10v80a10 10 0 0010 10h80a10 10 0 0010-10V10A10 10 0 0090 0H10zm1.9 45.2c.5-.3 17-6.8 36.8-14.4C83.7 17.3 86 16.5 87 17.2l.4.2c1.2.9 1.5 1.5 1.6 3.1 0 1.6-1 6.8-10.7 52-1.8 8.3-2.1 9.3-3.4 10.1-.8.5-2.5.5-3.7 0l-10-7-9-6.8-1.7 1.6-4.9 4.8c-2 2-3.5 3.2-4.1 3.5-1.3.6-1.7.5-1.7-.2 0-.9 1-17 1.2-17.6 0-.2 7.1-6.7 17.2-15.7C76 29 76 29 74.5 28.9c-.4 0-1 0-1.3.2L51.6 42.6l-20.8 13-6.7-2-9.8-3.1c-2.4-.8-3-1.1-3.6-1.6-.4-.4-.7-1-.7-1.2 0-.8.8-1.8 1.9-2.5z" clip-rule="evenodd"/><defs><linearGradient id="paint0_linear" x1="50" x2="50" y1="0" y2="100" gradientUnits="userSpaceOnUse"><stop stop-color="#37AEE2"/><stop offset="1" stop-color="#1E96C8"/></linearGradient></defs></svg>