<svg width="100" height="100" fill="none" xmlns="http://www.w3.org/2000/svg"><path fill-rule="evenodd" clip-rule="evenodd" d="M10 0A10 10 0 000 10v80a10 10 0 0010 10h80a10 10 0 0010-10V10A10 10 0 0090 0H10zm46.7 21.7c1.3-.7 2.9-1.2 4.4-1.5 1.6-.3 4.4-.2 6.2.2a15 15 0 016.3 3.4l1 .8a44.8 44.8 0 009.5-3.5c.1.1-.9 2.2-1.4 3.2-.8 1.2-2.5 3.1-3.8 4l-1 .8c.1.1.3 0 .8 0a35.4 35.4 0 007.3-2l-.9 1.3a36 36 0 01-5.2 5.3l-1.1.9-.1 2.8c-.4 11.3-5 21.9-12.9 29.7a40.8 40.8 0 01-24.2 11.6A43.7 43.7 0 0113 72.4l2.6.1a29.2 29.2 0 0019.3-6.2c.2-.1.1-.2-.4-.2A14.8 14.8 0 0122 57.7c-.5-1-.8-1.4-.6-1.6 0-.2.6-.1 1.7 0 1.5 0 2.3 0 3.4-.3l1.4-.2-1.2-.3c-5-1.5-8.8-5.4-10.3-10.4-.3-1.2-.6-4-.4-4a16 16 0 006 1.7h.6l-.4-.4c-1-.6-3.2-3-3.9-4a16 16 0 01-2-4.9c-.4-2.2-.3-5.4.4-7.5.2-.8 1.3-3 1.4-3l1.2 1.4a43 43 0 0029.7 14l-.1-.9c-.2-1.1-.2-3.6 0-4.9a15 15 0 017.9-10.7z" fill="#41ABE1"/></svg>