<svg width="2980" height="301" viewBox="0 0 2980 301" fill="none" xmlns="http://www.w3.org/2000/svg">
<path d="M2980 130.349C2974.34 132.147 2968.94 134.668 2963.92 137.85C2958.93 140.999 2954.5 144.904 2949.76 148.482C2933.62 160.806 2922.66 176.802 2916.11 195.811C2911.82 208.297 2909.25 221.316 2906.14 234.163C2902.59 248.864 2898.43 263.342 2886.6 274.241C2872.35 287.379 2856.34 293.772 2836.97 288.348C2830.31 286.486 2823.78 284.178 2817.22 281.972C2815.11 281.324 2813.14 280.272 2811.42 278.874C2811.68 278.544 2812.03 278.303 2812.44 278.182C2812.84 278.061 2813.27 278.065 2813.66 278.196C2820.9 279.188 2828.04 280.769 2835.02 282.925C2844.53 285.885 2854.02 286.212 2863.5 282.659C2868.89 280.532 2873.99 277.726 2878.67 274.309C2886.52 268.799 2893.11 262.166 2896.45 252.854C2899.53 243.934 2901.94 234.794 2903.67 225.513C2905.99 213.876 2908.37 202.342 2912.72 191.237C2918.82 175.635 2927.56 161.888 2939.83 150.439C2944.97 145.667 2951.23 142.561 2956.67 138.785C2944.68 141.197 2936.11 149.444 2927.58 157.742C2921.71 163.483 2916.65 169.911 2913.31 177.48C2905.76 194.644 2900.08 212.554 2894.74 230.533C2890.91 243.406 2885.02 255.017 2874.05 263.496C2865.96 269.752 2857.19 273.339 2846.79 272.164C2840.02 271.4 2834.36 268.327 2829.28 263.994C2828.51 263.342 2827 262.715 2828.1 261.333C2829.08 260.097 2829.88 261.505 2830.67 261.891C2832.38 262.749 2833.92 263.804 2835.59 264.68C2842.3 268.19 2849.19 269.537 2856.71 267.169C2860.4 265.927 2863.95 264.283 2867.29 262.268C2876.54 256.948 2883.35 249.336 2887 239.261C2892.72 223.299 2897.06 206.865 2903.08 190.988C2907.96 178.116 2913.08 165.474 2923.65 155.897C2930.14 150.001 2936.01 143.316 2944.3 139.772C2954.83 135.211 2965.81 131.802 2977.07 129.602C2977.95 129.5 2979.21 128.658 2980 130.349Z" fill="#444444"/>
<path d="M2778.23 61.789C2775.02 61.2827 2771.91 60.6991 2769.06 58.219C2764.08 53.8765 2760.41 48.4186 2755.64 43.956C2744.01 33.0572 2729.63 29.2382 2714.31 28.0282C2702.75 27.1099 2691.34 25.754 2680.71 20.6821C2678.65 20.1832 2676.5 20.1832 2674.43 20.6821C2672.33 21.4545 2671.51 23.1194 2670.81 25.1447C2670.24 26.8895 2669.97 28.7168 2670 30.5513C2670.27 31.5247 2670.31 32.5491 2670.1 33.5377C2670.1 34.2328 2670.17 34.9279 2670.2 35.6316C2670.23 36.5814 2670.27 37.5368 2670.3 38.498C2670.8 40.4611 2670.9 42.5011 2670.62 44.5053C2671.13 51.774 2672.28 58.9398 2675.87 65.3762C2682.68 77.7582 2691.3 89.0414 2701.47 98.8453C2709.34 106.346 2714.32 117.519 2709.3 129.739C2708.78 131.018 2708.44 132.374 2707.9 133.653C2704.41 142.192 2700.19 150.01 2691.01 153.941C2686.95 155.657 2683.79 158.841 2681.26 162.626C2676.57 169.637 2673.69 177.283 2671.66 185.47C2669.87 192.679 2673.09 198.016 2676.8 203.209C2678.78 205.955 2682.33 206.47 2685.44 205.328C2688.75 204.11 2688.15 200.857 2688.01 198.12C2687.85 196.616 2687.54 195.131 2687.08 193.691C2686.12 190.259 2687.31 188.096 2690.21 186.054C2697.69 180.776 2705.9 178.931 2714.88 179.669C2718.4 180.002 2721.96 179.662 2725.35 178.664C2730.05 177.232 2734.07 173.207 2734.53 169.276C2729.46 172.769 2724.38 175.532 2717.96 174.34C2706.09 172.142 2695.24 174.76 2685.48 181.917C2683.65 183.27 2682.24 185.121 2681.43 187.252C2680.62 189.382 2680.44 191.7 2680.9 193.931C2681.28 195.648 2682.16 197.236 2681.76 199.527C2677.92 194.721 2676.29 190.087 2678.14 184.08C2681.57 172.872 2685.58 162.394 2697.47 157.262C2701.85 155.365 2704.76 151.718 2706.73 147.229C2709.22 141.557 2710.23 135.309 2712.98 129.843C2718.81 118.24 2713.72 106.123 2706.98 99.678C2700.04 93.0893 2693.73 85.8726 2688.13 78.1202C2682.98 71.0402 2677.47 64.252 2675.56 55.1467C2673.85 47.0884 2673.85 38.9013 2672.31 30.8516C2671.19 24.8444 2675.74 21.875 2681.5 24.2693L2682.2 24.5784C2688.73 27.5479 2695.72 29.3848 2702.87 30.0106C2713.23 31.0404 2723.52 31.9844 2733.53 35.3399C2744.41 38.9786 2753.79 44.3594 2761.26 53.3102C2765.33 58.1932 2770.35 62.1322 2776.88 63.9001C2784.74 66.0284 2786.84 72.0357 2782.56 78.7724C2782.27 79.3559 2781.36 79.725 2781.9 80.6092C2785.75 80.0768 2787.52 77.5709 2787.9 73.9752C2788.74 67.0583 2785.25 62.9304 2778.23 61.789Z" fill="#444444"/>
<path d="M2736.71 274.524C2736.71 274.524 2736.71 274.575 2736.71 274.601H2736.84L2736.71 274.524Z" fill="#444444"/>
<path d="M2697.8 298.587C2700.97 297.643 2704.66 297.248 2706.97 298.87C2710.4 301.256 2713.83 300.637 2717.38 300.955C2720.47 301.238 2723.38 300.097 2726.34 299.874C2748.06 298.39 2769.76 296.545 2791.57 297.299C2796.89 297.557 2802.14 296.048 2806.51 293.008C2810.73 290.116 2812.69 285.5 2811.33 280.565C2811.09 279.707 2811.05 278.214 2809.62 278.531C2808.55 278.771 2809.11 280.016 2809.05 280.831C2808.69 286.229 2804.44 291.181 2799.63 291.532C2797.12 291.716 2794.61 291.739 2792.1 291.601C2781.28 291.017 2770.39 290.425 2759.64 291.524C2745.08 293.017 2730.18 292.047 2715.89 296.321C2715.21 296.527 2714.18 297.48 2713.56 296.321C2713.05 295.317 2713.73 294.364 2714.42 293.626C2716.04 291.91 2717.63 290.065 2720.07 289.387C2720.66 289.224 2721.37 288.958 2721.24 288.177C2721.1 287.396 2720.38 287.319 2719.76 287.241C2718.19 287.043 2716.59 287.239 2715.11 287.811C2713.62 288.383 2712.31 289.313 2711.27 290.52C2708.06 294.261 2703.56 293.369 2699.55 294.373C2700.61 293.165 2701.85 292.124 2703.23 291.284C2713.11 285.001 2723 278.737 2734.73 276.377C2735.85 276.154 2736.49 275.699 2736.64 274.601C2732.56 273.537 2728.27 273.641 2724.25 274.901C2716.93 277.184 2709.9 280.287 2703.29 284.152C2699.45 286.375 2695.32 288.615 2693.65 293.326C2693.06 294.983 2691.83 296.578 2693.23 298.244C2694.49 299.771 2696.38 299.007 2697.8 298.587Z" fill="#444444"/>
<path d="M2781.26 135.181C2784.94 140.664 2789.96 144.955 2794.03 150.087C2802.36 160.6 2807.46 172.898 2812.88 184.904C2819.06 198.635 2823.17 213.06 2823.37 228.319C2823.48 237.759 2823.37 247.199 2823.43 256.639C2823.43 257.497 2822.97 258.561 2824.15 259.213C2828.44 246.942 2829.2 223.17 2826.07 207.868C2823.5 195.116 2817.2 183.839 2812.19 172.031C2807.4 160.763 2800.46 151.066 2792.48 141.883C2787.58 136.245 2780.95 131.937 2778.29 124.428C2777.51 122.231 2776.52 120.137 2775.54 117.751C2775.01 118.155 2774.84 118.214 2774.84 118.3C2774.77 118.769 2774.76 119.244 2774.8 119.717C2775.57 125.449 2778.11 130.444 2781.26 135.181Z" fill="#444444"/>
<path d="M2736.7 274.549H2736.64L2736.77 274.66L2736.7 274.549Z" fill="#444444"/>
<path d="M2736.7 274.549C2737.14 274.719 2737.55 274.937 2737.93 275.202C2745.42 281.517 2754.05 282.264 2763.24 280.522C2765.12 280.17 2766.25 279.055 2767.53 277.57C2765.76 276.992 2763.86 276.942 2762.06 277.424C2754.83 279.432 2748.66 276.969 2742.97 272.85C2737.66 268.808 2732.78 264.224 2728.42 259.171C2723.21 253.412 2720.35 246.984 2720.28 238.738C2720.18 225.864 2722.75 213.412 2723.55 200.728C2723.94 194.678 2724.45 188.602 2722.45 182.707C2721.51 182.87 2721.39 183.419 2721.39 183.874C2721.32 198.343 2716.51 212.082 2714.87 226.302C2713.31 239.853 2715.88 252.313 2725.03 263.033C2728.62 267.229 2733.41 270.129 2736.7 274.549Z" fill="#444444"/>
<path d="M2752.05 113.168C2759.59 117.64 2767.63 117.125 2775.8 115.296C2778.92 114.558 2781.71 112.835 2783.78 110.38C2785.84 107.926 2787.07 104.871 2787.26 101.669C2787.6 94.494 2786.78 87.818 2781.01 82.7199C2779.1 81.0039 2781.48 81.3296 2781.93 80.7288L2782.59 78.8926C2778.76 81.1499 2775.87 79.4246 2773.03 76.8158C2769.18 73.2801 2765.32 69.7872 2762.46 64.8785C2761.79 67.1698 2762.63 68.6116 2763.47 69.9761C2766.7 75.368 2770.64 80.294 2775.2 84.6163C2777.64 86.7863 2779.6 89.4441 2780.96 92.4179C2783.2 97.4205 2781.94 107.865 2775.29 110.439C2769.9 112.525 2764.67 112.302 2759.49 110.937C2749.58 108.363 2744.55 100.897 2741.8 91.5595C2741.56 90.7011 2741.68 89.5852 2740.42 89.8428C2739.49 90.0401 2739.76 91.0613 2739.73 91.7825C2739.41 101.471 2743.97 108.38 2752.05 113.168Z" fill="#444444"/>
<path d="M2781.26 0C2781.26 1.96523 2781.2 3.78457 2781.17 5.60392C2781.1 9.51149 2781.02 13.4191 2780.94 17.3267C2780.94 17.8072 2781.04 17.9102 2781.38 17.936C2783.87 18.1247 2786.35 18.3393 2788.85 18.5281C2789.15 18.5281 2789.27 18.571 2789.14 19.0516C2786.28 29.8246 2783.43 40.6034 2780.57 51.3879C2780.54 51.516 2780.49 51.6364 2780.41 51.7397C2780.47 50.1835 2780.53 48.6302 2780.6 47.0797C2780.9 39.9283 2781.21 32.7768 2781.52 25.6252C2781.52 25.1961 2781.44 25.119 2781.17 25.0932L2772.99 24.3809C2772.72 24.3809 2772.59 24.3809 2772.75 23.9346C2775.55 16.0737 2778.34 8.2099 2781.14 0.343267C2781.14 0.231704 2781.19 0.163054 2781.26 0Z" fill="#444444"/>
<path d="M2835.68 0.935405L2830.72 6.87402C2827.25 11.0104 2823.79 15.1411 2820.31 19.2661C2819.89 19.7725 2819.89 19.9698 2820.13 20.2444C2821.95 22.2955 2823.74 24.3809 2825.55 26.4319C2825.77 26.6808 2825.84 26.7924 2825.33 27.2129C2813.66 36.6185 2801.99 46.0357 2790.32 55.4642C2790.2 55.579 2790.05 55.6666 2789.88 55.7216L2794.1 50.8644C2800.57 43.4268 2807.05 35.9892 2813.53 28.5517C2813.91 28.1054 2813.9 27.9424 2813.71 27.6934C2811.75 25.4107 2809.79 23.1194 2807.83 20.828C2807.64 20.6049 2807.54 20.5191 2808.03 20.1759C2817.1 13.8367 2826.17 7.48905 2835.24 1.13279C2835.34 1.12421 2835.44 1.08129 2835.68 0.935405Z" fill="#444444"/>
<path d="M2846.19 74.0181L2840.75 73.6834C2836.96 73.4603 2833.16 73.2429 2829.36 73.0312C2828.9 73.0312 2828.81 72.8853 2828.81 72.5591C2828.81 70.1219 2828.81 67.6847 2828.81 65.2475C2828.81 64.9557 2828.81 64.8356 2828.32 64.9214L2796.32 70.8514C2796.19 70.8666 2796.07 70.9107 2795.96 70.9801L2800.49 71.1432C2807.45 71.3835 2814.41 71.6209 2821.36 71.8555C2821.78 71.8555 2821.85 71.9756 2821.85 72.2416C2821.85 74.9106 2821.91 77.5881 2821.92 80.2571C2821.92 80.5146 2821.92 80.6349 2822.34 80.5234L2845.84 74.1382L2846.19 74.0181Z" fill="#444444"/>
<path d="M0 299.198V203.539H65.4725V226.443H26.2159V242.341H58.2128V263.629H26.2159V299.198H0Z" fill="#444444"/>
<path d="M75.7541 299.198V203.539H119.582C124.242 203.539 128.544 204.482 132.488 206.368C136.432 208.255 139.837 210.814 142.705 214.048C145.574 217.192 147.769 220.74 149.293 224.692C150.906 228.644 151.713 232.641 151.713 236.683C151.713 242.162 150.503 247.326 148.083 252.177C145.663 257.027 142.302 260.979 138 264.033L158.166 299.198H129.396L112.591 269.827H101.97V299.198H75.7541ZM101.97 246.922H118.506C120.119 246.922 121.598 246.024 122.943 244.228C124.377 242.431 125.094 239.916 125.094 236.683C125.094 233.359 124.287 230.844 122.674 229.138C121.061 227.341 119.447 226.443 117.834 226.443H101.97V246.922Z" fill="#444444"/>
<path d="M208.315 300.006C201.055 300.006 194.467 298.659 188.552 295.964C182.636 293.18 177.528 289.497 173.226 284.916C169.013 280.246 165.742 275.036 163.411 269.288C161.171 263.449 160.05 257.431 160.05 251.234C160.05 244.856 161.26 238.794 163.68 233.045C166.1 227.296 169.461 222.177 173.763 217.686C178.155 213.105 183.309 209.512 189.224 206.907C195.229 204.302 201.772 203 208.852 203C216.112 203 222.7 204.392 228.615 207.177C234.53 209.871 239.594 213.554 243.807 218.225C248.019 222.895 251.246 228.15 253.487 233.988C255.817 239.737 256.982 245.665 256.982 251.773C256.982 258.06 255.772 264.078 253.352 269.827C251.022 275.575 247.661 280.74 243.269 285.321C238.967 289.812 233.858 293.404 227.943 296.099C222.028 298.704 215.485 300.006 208.315 300.006ZM186.67 251.503C186.67 255.725 187.431 259.767 188.955 263.629C190.568 267.491 192.988 270.635 196.215 273.06C199.531 275.485 203.654 276.698 208.583 276.698C213.692 276.698 217.815 275.44 220.952 272.925C224.179 270.41 226.554 267.222 228.077 263.359C229.601 259.407 230.363 255.365 230.363 251.234C230.363 246.922 229.556 242.88 227.943 239.108C226.33 235.335 223.91 232.282 220.683 229.946C217.457 227.521 213.378 226.308 208.449 226.308C203.43 226.308 199.307 227.566 196.08 230.081C192.854 232.506 190.479 235.65 188.955 239.512C187.431 243.285 186.67 247.282 186.67 251.503Z" fill="#444444"/>
<path d="M294.309 252.177V299.198H268.093V203.539H288.528L326.844 252.177V203.539H353.06V299.198H332.221L294.309 252.177Z" fill="#444444"/>
<path d="M443.795 226.443H416.369V299.198H390.153V226.443H362.592V203.539H443.795V226.443Z" fill="#444444"/>
<path d="M521.37 276.294V299.198H453.343V203.539H520.16V226.443H479.559V239.916H514.245V261.204H479.559V276.294H521.37Z" fill="#444444"/>
<path d="M559.777 252.177V299.198H533.561V203.539H553.996L592.311 252.177V203.539H618.527V299.198H597.689L559.777 252.177Z" fill="#444444"/>
<path d="M634.916 299.198V203.539H671.619C682.195 203.539 691.023 205.695 698.103 210.006C705.274 214.228 710.651 219.976 714.236 227.252C717.911 234.437 719.748 242.431 719.748 251.234C719.748 260.934 717.732 269.377 713.699 276.563C709.755 283.749 704.153 289.318 696.894 293.27C689.723 297.222 681.298 299.198 671.619 299.198H634.916ZM693.129 251.234C693.129 243.779 691.202 237.805 687.348 233.314C683.584 228.734 678.341 226.443 671.619 226.443H661.132V276.294H671.619C678.52 276.294 683.808 273.913 687.483 269.153C691.247 264.392 693.129 258.419 693.129 251.234Z" fill="#444444"/>
<path d="M761.348 299.198V203.539H798.051C808.627 203.539 817.455 205.695 824.535 210.006C831.705 214.228 837.083 219.976 840.668 227.252C844.343 234.437 846.18 242.431 846.18 251.234C846.18 260.934 844.164 269.377 840.13 276.563C836.187 283.749 830.585 289.318 823.325 293.27C816.155 297.222 807.73 299.198 798.051 299.198H761.348ZM819.561 251.234C819.561 243.779 817.634 237.805 813.78 233.314C810.016 228.734 804.773 226.443 798.051 226.443H787.564V276.294H798.051C804.952 276.294 810.24 273.913 813.915 269.153C817.679 264.392 819.561 258.419 819.561 251.234Z" fill="#444444"/>
<path d="M925.61 276.294V299.198H857.584V203.539H924.4V226.443H883.799V239.916H918.485V261.204H883.799V276.294H925.61Z" fill="#444444"/>
<path d="M956.22 203.539L974.907 268.883L993.325 203.539H1020.89L987.948 299.198H961.866L928.525 203.539H956.22Z" fill="#444444"/>
<path d="M1096.16 276.294V299.198H1028.13V203.539H1094.95V226.443H1054.34V239.916H1089.03V261.204H1054.34V276.294H1096.16Z" fill="#444444"/>
<path d="M1108.35 299.198V203.539H1134.56V276.294H1177.85V299.198H1108.35Z" fill="#444444"/>
<path d="M1228.83 300.006C1221.57 300.006 1214.98 298.659 1209.07 295.964C1203.15 293.18 1198.04 289.497 1193.74 284.916C1189.53 280.246 1186.26 275.036 1183.93 269.288C1181.68 263.449 1180.56 257.431 1180.56 251.234C1180.56 244.856 1181.77 238.794 1184.19 233.045C1186.61 227.296 1189.98 222.177 1194.28 217.686C1198.67 213.105 1203.82 209.512 1209.74 206.907C1215.74 204.302 1222.29 203 1229.37 203C1236.63 203 1243.21 204.392 1249.13 207.177C1255.04 209.871 1260.11 213.554 1264.32 218.225C1268.53 222.895 1271.76 228.15 1274 233.988C1276.33 239.737 1277.5 245.665 1277.5 251.773C1277.5 258.06 1276.29 264.078 1273.87 269.827C1271.54 275.575 1268.17 280.74 1263.78 285.321C1259.48 289.812 1254.37 293.404 1248.46 296.099C1242.54 298.704 1236 300.006 1228.83 300.006ZM1207.18 251.503C1207.18 255.725 1207.95 259.767 1209.47 263.629C1211.08 267.491 1213.5 270.635 1216.73 273.06C1220.05 275.485 1224.17 276.698 1229.1 276.698C1234.21 276.698 1238.33 275.44 1241.47 272.925C1244.69 270.41 1247.07 267.222 1248.59 263.359C1250.11 259.407 1250.88 255.365 1250.88 251.234C1250.88 246.922 1250.07 242.88 1248.46 239.108C1246.84 235.335 1244.42 232.282 1241.2 229.946C1237.97 227.521 1233.89 226.308 1228.96 226.308C1223.94 226.308 1219.82 227.566 1216.59 230.081C1213.37 232.506 1210.99 235.65 1209.47 239.512C1207.95 243.285 1207.18 247.282 1207.18 251.503Z" fill="#444444"/>
<path d="M1288.61 299.198V203.539H1329.75C1334.41 203.539 1338.71 204.482 1342.65 206.368C1346.6 208.255 1350 210.814 1352.87 214.048C1355.74 217.192 1357.93 220.74 1359.46 224.692C1361.07 228.644 1361.88 232.641 1361.88 236.683C1361.88 242.341 1360.53 247.686 1357.84 252.716C1355.24 257.746 1351.57 261.877 1346.82 265.111C1342.16 268.255 1336.69 269.827 1330.42 269.827H1314.82V299.198H1288.61ZM1314.82 246.922H1328.67C1330.28 246.922 1331.76 246.204 1333.11 244.767C1334.54 243.24 1335.26 240.545 1335.26 236.683C1335.26 232.731 1334.45 230.036 1332.84 228.599C1331.22 227.162 1329.61 226.443 1328 226.443H1314.82V246.922Z" fill="#444444"/>
<path d="M1440.4 276.294V299.198H1372.37V203.539H1439.19V226.443H1398.59V239.916H1433.27V261.204H1398.59V276.294H1440.4Z" fill="#444444"/>
<path d="M1452.59 299.198V203.539H1496.42C1501.08 203.539 1505.38 204.482 1509.32 206.368C1513.27 208.255 1516.67 210.814 1519.54 214.048C1522.41 217.192 1524.6 220.74 1526.13 224.692C1527.74 228.644 1528.55 232.641 1528.55 236.683C1528.55 242.162 1527.34 247.326 1524.92 252.177C1522.5 257.027 1519.14 260.979 1514.83 264.033L1535 299.198H1506.23L1489.42 269.827H1478.8V299.198H1452.59ZM1478.8 246.922H1495.34C1496.95 246.922 1498.43 246.024 1499.78 244.228C1501.21 242.431 1501.93 239.916 1501.93 236.683C1501.93 233.359 1501.12 230.844 1499.51 229.138C1497.89 227.341 1496.28 226.443 1494.67 226.443H1478.8V246.922Z" fill="#444444"/>
<path d="M1567 299.467V203.808H1632.47V226.713H1593.22V242.611H1625.21V263.898H1593.22V299.467H1567Z" fill="#444444"/>
<path d="M1642.75 299.467V203.808H1686.58C1691.24 203.808 1695.54 204.752 1699.49 206.638C1703.43 208.524 1706.84 211.084 1709.71 214.317C1712.57 217.461 1714.77 221.009 1716.29 224.961C1717.91 228.913 1718.71 232.91 1718.71 236.952C1718.71 242.431 1717.5 247.596 1715.08 252.446C1712.66 257.297 1709.3 261.249 1705 264.303L1725.17 299.467H1696.4L1679.59 270.096H1668.97V299.467H1642.75ZM1668.97 247.192H1685.51C1687.12 247.192 1688.6 246.294 1689.94 244.497C1691.38 242.701 1692.09 240.186 1692.09 236.952C1692.09 233.629 1691.29 231.114 1689.67 229.407C1688.06 227.611 1686.45 226.713 1684.83 226.713H1668.97V247.192Z" fill="#444444"/>
<path d="M1775.31 300.276C1768.05 300.276 1761.47 298.928 1755.55 296.234C1749.64 293.449 1744.53 289.767 1740.23 285.186C1736.01 280.515 1732.74 275.306 1730.41 269.557C1728.17 263.719 1727.05 257.701 1727.05 251.503C1727.05 245.126 1728.26 239.063 1730.68 233.314C1733.1 227.566 1736.46 222.446 1740.76 217.955C1745.16 213.374 1750.31 209.781 1756.22 207.177C1762.23 204.572 1768.77 203.269 1775.85 203.269C1783.11 203.269 1789.7 204.662 1795.62 207.446C1801.53 210.141 1806.59 213.823 1810.81 218.494C1815.02 223.165 1818.25 228.419 1820.49 234.258C1822.82 240.006 1823.98 245.934 1823.98 252.042C1823.98 258.329 1822.77 264.347 1820.35 270.096C1818.02 275.845 1814.66 281.009 1810.27 285.59C1805.97 290.081 1800.86 293.674 1794.94 296.369C1789.03 298.973 1782.48 300.276 1775.31 300.276ZM1753.67 251.773C1753.67 255.994 1754.43 260.036 1755.96 263.898C1757.57 267.761 1759.99 270.904 1763.21 273.33C1766.53 275.755 1770.65 276.967 1775.58 276.967C1780.69 276.967 1784.82 275.71 1787.95 273.195C1791.18 270.68 1793.55 267.491 1795.08 263.629C1796.6 259.677 1797.36 255.635 1797.36 251.503C1797.36 247.192 1796.56 243.15 1794.94 239.377C1793.33 235.605 1790.91 232.551 1787.68 230.216C1784.46 227.791 1780.38 226.578 1775.45 226.578C1770.43 226.578 1766.31 227.835 1763.08 230.35C1759.85 232.776 1757.48 235.919 1755.96 239.782C1754.43 243.554 1753.67 247.551 1753.67 251.773Z" fill="#444444"/>
<path d="M1907.29 299.467V249.078L1891.29 284.512H1877.31L1861.31 249.078V299.467H1835.09V203.808H1863.73L1884.3 248.809L1905 203.808H1933.5V299.467H1907.29Z" fill="#444444"/>
<path d="M2061.24 274.946C2061.24 280.695 2059.67 285.366 2056.53 288.958C2053.49 292.551 2049.36 295.201 2044.17 296.907C2038.97 298.614 2033.23 299.467 2026.96 299.467H1980.04V203.808H2035.43C2039.91 203.808 2043.76 205.021 2046.99 207.446C2050.3 209.781 2052.81 212.835 2054.52 216.608C2056.31 220.38 2057.21 224.287 2057.21 228.329C2057.21 232.731 2056.04 236.997 2053.71 241.129C2051.47 245.261 2048.06 248.359 2043.49 250.425C2048.96 252.042 2053.26 254.871 2056.4 258.913C2059.63 262.955 2061.24 268.3 2061.24 274.946ZM2006.25 226.174V240.859H2024.13C2025.93 240.859 2027.54 240.365 2028.97 239.377C2030.5 238.389 2031.26 236.413 2031.26 233.449C2031.26 230.844 2030.63 229.003 2029.38 227.925C2028.12 226.758 2026.64 226.174 2024.94 226.174H2006.25ZM2034.62 269.557C2034.62 267.222 2033.99 265.291 2032.74 263.764C2031.48 262.147 2029.87 261.339 2027.9 261.339H2006.25V277.371H2026.96C2029.11 277.371 2030.9 276.698 2032.33 275.351C2033.86 274.003 2034.62 272.072 2034.62 269.557Z" fill="#444444"/>
<path d="M2140.89 276.563V299.467H2072.86V203.808H2139.68V226.713H2099.07V240.186H2133.76V261.473H2099.07V276.563H2140.89Z" fill="#444444"/>
<path d="M2153.08 299.467V203.808H2179.29V276.563H2222.58V299.467H2153.08Z" fill="#444444"/>
<path d="M2253.77 203.808H2283.08L2313.46 299.467H2286.84L2281.06 280.74H2255.65L2250 299.467H2223.25L2253.77 203.808ZM2276.89 263.225L2268.42 229.542L2259.55 263.225H2276.89Z" fill="#444444"/>
<path d="M2321.39 299.467V203.808H2365.22C2369.88 203.808 2374.18 204.752 2378.12 206.638C2382.07 208.524 2385.47 211.084 2388.34 214.317C2391.21 217.461 2393.41 221.009 2394.93 224.961C2396.54 228.913 2397.35 232.91 2397.35 236.952C2397.35 242.431 2396.14 247.596 2393.72 252.446C2391.3 257.297 2387.94 261.249 2383.64 264.303L2403.8 299.467H2375.03L2358.23 270.096H2347.61V299.467H2321.39ZM2347.61 247.192H2364.14C2365.76 247.192 2367.23 246.294 2368.58 244.497C2370.01 242.701 2370.73 240.186 2370.73 236.952C2370.73 233.629 2369.92 231.114 2368.31 229.407C2366.7 227.611 2365.08 226.713 2363.47 226.713H2347.61V247.192Z" fill="#444444"/>
<path d="M2453 300.276C2445.38 300.276 2438.84 299.018 2433.37 296.503C2427.9 293.988 2423.42 290.53 2419.93 286.129C2416.52 281.728 2414.01 276.698 2412.4 271.039C2410.79 265.291 2409.98 259.273 2409.98 252.985V203.808H2436.19V252.985C2436.19 257.207 2436.73 261.159 2437.81 264.842C2438.97 268.434 2440.77 271.353 2443.19 273.599C2445.7 275.845 2448.97 276.967 2453 276.967C2457.12 276.967 2460.39 275.845 2462.81 273.599C2465.32 271.264 2467.12 268.3 2468.19 264.707C2469.36 261.024 2469.94 257.117 2469.94 252.985V203.808H2496.16V252.985C2496.16 261.877 2494.59 269.916 2491.45 277.102C2488.4 284.198 2483.7 289.857 2477.33 294.078C2470.97 298.21 2462.86 300.276 2453 300.276Z" fill="#444444"/>
<path d="M2569.04 235.066C2569.04 235.066 2568.28 234.617 2566.76 233.719C2565.23 232.82 2563.22 231.832 2560.71 230.755C2558.2 229.587 2555.47 228.554 2552.51 227.656C2549.55 226.758 2546.64 226.308 2543.77 226.308C2541.53 226.308 2539.69 226.668 2538.26 227.386C2536.82 228.105 2536.11 229.317 2536.11 231.024C2536.11 233.539 2537.67 235.335 2540.81 236.413C2544.04 237.401 2548.39 238.794 2553.85 240.59C2559.77 242.386 2564.88 244.452 2569.18 246.788C2573.48 249.123 2576.8 252.132 2579.13 255.815C2581.46 259.407 2582.62 264.213 2582.62 270.231C2582.62 275.979 2581.59 280.83 2579.53 284.782C2577.47 288.644 2574.69 291.743 2571.2 294.078C2567.7 296.413 2563.8 298.12 2559.5 299.198C2555.2 300.186 2550.81 300.68 2546.32 300.68C2541.75 300.68 2536.96 300.231 2531.94 299.333C2527.01 298.345 2522.21 297.042 2517.55 295.425C2512.89 293.719 2508.64 291.743 2504.78 289.497L2516.07 266.458C2516.07 266.458 2516.97 266.997 2518.76 268.075C2520.56 269.153 2522.93 270.365 2525.89 271.713C2528.85 273.06 2532.12 274.273 2535.7 275.351C2539.38 276.428 2543.05 276.967 2546.73 276.967C2549.6 276.967 2551.57 276.608 2552.64 275.889C2553.81 275.081 2554.39 274.048 2554.39 272.791C2554.39 270.904 2553.4 269.467 2551.43 268.479C2549.46 267.401 2546.86 266.413 2543.63 265.515C2540.5 264.527 2537 263.404 2533.15 262.147C2524.72 259.273 2518.58 255.859 2514.73 251.907C2510.88 247.865 2508.95 242.341 2508.95 235.335C2508.95 228.24 2510.61 222.311 2513.92 217.551C2517.24 212.79 2521.59 209.198 2526.96 206.772C2532.43 204.257 2538.3 203 2544.58 203C2549.24 203 2553.72 203.584 2558.02 204.751C2562.41 205.829 2566.49 207.177 2570.25 208.793C2574.11 210.41 2577.47 211.937 2580.34 213.374L2569.04 235.066Z" fill="#444444"/>
</svg>
